<?xml version="1.0" standalone="no"?>
<!DOCTYPE svg PUBLIC "-//W3C//DTD SVG 20010904//EN"
 "http://www.w3.org/TR/2001/REC-SVG-20010904/DTD/svg10.dtd">
<svg version="1.0" xmlns="http://www.w3.org/2000/svg"
 width="1024.000000pt" height="1024.000000pt" viewBox="0 0 1024.000000 1024.000000"
 preserveAspectRatio="xMidYMid meet">
<metadata>
Created by potrace 1.11, written by Peter Selinger 2001-2013
</metadata>
<g transform="translate(0.000000,1024.000000) scale(0.100000,-0.100000)"
fill="#000000" stroke="none">
<path d="M3293 9055 c-91 -20 -158 -60 -245 -146 -101 -98 -147 -190 -155
-306 -13 -185 52 -323 256 -543 204 -220 721 -770 1330 -1414 337 -357 622
-664 632 -680 11 -18 19 -50 19 -74 0 -37 -6 -50 -34 -78 -41 -41 -87 -45
-135 -11 -18 12 -213 211 -434 442 -220 231 -698 731 -1062 1110 -363 380
-765 800 -894 935 -128 135 -258 266 -289 293 -203 170 -506 218 -705 109
-112 -61 -205 -173 -249 -300 -29 -86 -31 -236 -4 -326 23 -78 74 -178 124
-244 22 -30 244 -270 493 -535 1819 -1929 2078 -2207 2102 -2250 32 -60 15
-122 -44 -153 -37 -19 -68 -18 -101 4 -15 10 -94 88 -175 173 -939 985 -2039
2126 -2107 2187 -236 208 -496 251 -694 115 -153 -105 -251 -290 -252 -475 0
-94 16 -160 60 -253 46 -97 -73 33 1320 -1439 602 -637 1100 -1167 1107 -1179
7 -12 12 -39 13 -61 0 -32 -7 -45 -39 -77 -44 -45 -85 -51 -138 -21 -17 9
-212 208 -434 442 -528 557 -1049 1099 -1135 1180 -204 192 -458 223 -661 81
-202 -142 -293 -350 -243 -561 26 -113 108 -260 207 -373 97 -110 1249 -1328
1963 -2076 217 -228 418 -439 446 -470 109 -119 636 -603 945 -868 833 -712
1355 -994 1993 -1073 145 -18 441 -13 594 10 399 59 762 207 1152 471 230 155
532 413 766 652 785 802 1193 1692 1144 2492 -14 231 -70 464 -156 652 -20 43
-92 233 -159 423 -375 1050 -1134 3076 -1182 3153 -70 111 -237 156 -367 98
-104 -46 -318 -252 -412 -397 -118 -180 -173 -357 -181 -580 -6 -144 4 -248
34 -374 9 -36 121 -353 249 -705 128 -352 236 -652 239 -667 14 -54 -35 -142
-96 -173 -15 -8 -48 -15 -73 -15 -39 0 -53 6 -103 49 -135 112 -309 278 -653
627 -201 203 -595 601 -876 884 -280 283 -788 799 -1128 1145 -818 833 -916
930 -1015 1004 -192 142 -397 203 -558 166z"/>
</g>
</svg>
